# xmcd
#
# Track frame offsets:
#	150
#	22439
#	35975
#	49162
#	60847
#	77691
#	88581
#	102853
#	118261
#	127225
#	143285
#	156959
#	170692
#	185672
#	198817
#	217661
#
# Disc length: 3050 seconds
#
# Revision: 0
# Processed by: cddbd v1.5.2PL0 Copyright (c) Steve Scherf et al.
# Submitted via: dBpowerAMP V4.0
#
DISCID=e10be810
DTITLE=Kjell Fredriksson - Favoriter Vol.2
DYEAR=2007
DGENRE=Country
TTITLE0=Omkring tiggarn från Luossa
TTITLE1=Är det konstigt att man längtar bort nån gång
TTITLE2=Amerikabrevet
TTITLE3=Vägen hem
TTITLE4=Ljus och värme
TTITLE5=Act naturally
TTITLE6=Branded man
TTITLE7=Achy breaky heart
TTITLE8=Loves gonna live here
TTITLE9=Satin sheets
TTITLE10=Sally was a good old girl
TTITLE11=Dear one
TTITLE12=A good hearted women
TTITLE13=Six days on the road
TTITLE14=Help me make it through the night
TTITLE15=Guitar boogie
EXTD=
EXTT0=
EXTT1=
EXTT2=
EXTT3=
EXTT4=
EXTT5=
EXTT6=
EXTT7=
EXTT8=
EXTT9=
EXTT10=
EXTT11=
EXTT12=
EXTT13=
EXTT14=
EXTT15=
PLAYORDER=
